<?xml version="1.0" standalone="no"?><!DOCTYPE svg PUBLIC "-//W3C//DTD SVG 1.1//EN" "http://www.w3.org/Graphics/SVG/1.1/DTD/svg11.dtd"><svg t="1713690041101" class="icon" viewBox="0 0 1024 1024" version="1.1" xmlns="http://www.w3.org/2000/svg" p-id="9040" xmlns:xlink="http://www.w3.org/1999/xlink" width="200" height="200"><path d="M0 0m409.6 0l204.8 0q409.6 0 409.6 409.6l0 204.8q0 409.6-409.6 409.6l-204.8 0q-409.6 0-409.6-409.6l0-204.8q0-409.6 409.6-409.6Z" fill="#41b883" p-id="9041" data-spm-anchor-id="a313x.search_index.0.i5.1ef03a81G87xlw" class="selected"></path><path d="M230.4 409.6a25.6512 25.6512 0 0 1-25.6-25.6V268.8C204.8 232.96 232.96 204.8 268.8 204.8H384c14.08 0 25.6 11.52 25.6 25.6s-11.52 25.6-25.6 25.6H268.8a13.7728 13.7728 0 0 0-12.8 12.8V384c0 14.08-11.52 25.6-25.6 25.6z m563.2 0a25.6512 25.6512 0 0 1-25.6-25.6V268.8a13.7728 13.7728 0 0 0-12.8-12.8H640a25.6512 25.6512 0 0 1-25.6-25.6c0-14.08 11.52-25.6 25.6-25.6h115.2c35.84 0 64 28.16 64 64V384c0 14.08-11.52 25.6-25.6 25.6z m-38.4 409.6H640a25.6512 25.6512 0 0 1-25.6-25.6c0-14.08 11.52-25.6 25.6-25.6h115.2c6.4 0 12.8-6.4 12.8-12.8V640c0-14.08 11.52-25.6 25.6-25.6s25.6 11.52 25.6 25.6v115.2c0 35.84-28.16 64-64 64z m-486.4 0C232.96 819.2 204.8 791.04 204.8 755.2V640c0-14.08 11.52-25.6 25.6-25.6s25.6 11.52 25.6 25.6v115.2c0 6.4 6.4 12.8 12.8 12.8H384c14.08 0 25.6 11.52 25.6 25.6s-11.52 25.6-25.6 25.6H268.8z m-38.4-258.1504c-14.08 0-25.6-10.5472-25.6-23.4496s11.52-23.4496 25.6-23.4496h563.2c14.08 0 25.6 10.5472 25.6 23.4496s-11.52 23.4496-25.6 23.4496h-563.2z" fill="#34495e" p-id="9042" data-spm-anchor-id="a313x.search_index.0.i8.1ef03a81G87xlw" class="selected"></path></svg>